<?xml version="1.0" encoding="utf-8"?>
<!-- Generator: Adobe Illustrator 22.0.1, SVG Export Plug-In . SVG Version: 6.00 Build 0)  -->
<svg version="1.1" id="Layer_1" xmlns="http://www.w3.org/2000/svg" xmlns:xlink="http://www.w3.org/1999/xlink" x="0px" y="0px"
	 viewBox="0 0 183 47" style="enable-background:new 0 0 183 47;" xml:space="preserve">
<style type="text/css">
	.st0{fill:none;stroke:#000000;stroke-width:0.8669;stroke-miterlimit:10;}
	.st1{fill:none;stroke:#000000;stroke-width:0.6599;stroke-miterlimit:10;}
	.st2{fill:url(#SVGID_1_);}
	.st3{fill:none;stroke:#FFFFFF;stroke-width:2.189;stroke-miterlimit:10;}
	.st4{stroke:#000000;stroke-width:3;stroke-miterlimit:10;}
	.st5{fill:#050606;stroke:#050606;stroke-width:2.3419;stroke-miterlimit:10;}
	.st6{fill:#232B38;}
	.st7{fill:url(#SVGID_2_);}
	.st8{fill:url(#SVGID_3_);}
	.st9{fill:#FFFFFF;}
	.st10{fill:#050606;stroke:#050606;stroke-width:3;stroke-miterlimit:10;}
	.st11{fill:url(#SVGID_4_);}
	.st12{fill:url(#SVGID_5_);}
	.st13{fill:url(#SVGID_6_);}
	.st14{fill:none;stroke:#232B38;stroke-width:0.25;stroke-miterlimit:10;}
	.st15{fill:none;stroke:#232B38;stroke-width:0.2517;stroke-miterlimit:10;}
	.st16{fill:#060707;stroke:#060707;stroke-width:3;stroke-miterlimit:10;}
	.st17{fill:url(#SVGID_7_);}
	.st18{fill:url(#SVGID_8_);}
	.st19{fill:url(#SVGID_9_);}
	.st20{fill:none;stroke:#FFFFFF;stroke-width:1.3759;stroke-miterlimit:10;}
	.st21{fill:url(#SVGID_10_);}
	.st22{fill:none;stroke:#FFFFFF;stroke-width:0.6879;stroke-miterlimit:10;}
	.st23{fill:#060707;stroke:#060707;stroke-width:1.3162;stroke-miterlimit:10;}
	.st24{fill:url(#SVGID_11_);}
	.st25{fill:none;stroke:#FFFFFF;stroke-width:0.9604;stroke-miterlimit:10;}
	.st26{fill:#060707;stroke:#060707;stroke-width:0.7925;stroke-miterlimit:10;}
	.st27{fill:url(#SVGID_12_);}
	.st28{fill:none;stroke:#FFFFFF;stroke-width:0.5782;stroke-miterlimit:10;}
	.st29{fill:#F7F8FB;stroke:#F7F8FB;stroke-width:3;stroke-miterlimit:10;}
	.st30{fill:#F7F8FB;}
	.st31{fill:none;stroke:#457EC1;stroke-width:2.189;stroke-miterlimit:10;}
	.st32{fill:#F7F8FB;stroke:#F7F8FB;stroke-width:1.3162;stroke-miterlimit:10;}
	.st33{fill:none;stroke:#457EC1;stroke-width:0.9604;stroke-miterlimit:10;}
	.st34{fill:url(#SVGID_13_);}
	.st35{fill:url(#SVGID_14_);}
	.st36{fill:url(#SVGID_15_);}
	.st37{fill:#181818;}
</style>
<g>
	<g>
		<path class="st23" d="M56.3,12.3h3.6v22.3h-3.6V12.3z"/>
		<path class="st23" d="M80.5,34.6L67.2,20.7v13.8h-3.6V12.3H64l13.3,13.8V12.3h3.6v22.3H80.5z"/>
		<path class="st23" d="M105.5,23.8c0,6.7-4.4,11.1-9.9,11.1c-5.4,0-10.9-4.6-10.9-11.4s5.5-11.4,10.9-11.4c3.4,0,6.2,1.3,7.7,3.1
			l-2.3,2.5c-1-1.2-2.9-2.1-5.3-2.1c-3.5,0-7.3,3.3-7.3,7.9s3.8,7.9,7.3,7.9c2.7,0,4.9-1.7,5.9-4.5H98v-3.2H105.5z"/>
		<path class="st23" d="M115,25.9h-2.1v8.7h-3.5V12.3h7.7c4.9,0,8,3,8,6.8c0,3.4-2.3,6-6.1,6.7l7.2,8.8h-4.4L115,25.9z M116.8,22.8
			c2.8,0,4.7-1,4.7-3.7c0-2.6-1.9-3.7-4.7-3.7h-4v7.4H116.8z"/>
		<path class="st23" d="M145.3,34.6h-14.7V12.3H145v3.2h-10.8v6.4h7.6v3.2h-7.6v6.5h11.1V34.6z"/>
		<path class="st23" d="M157.1,21.4c4.6,1.6,6.7,3.8,6.7,7c0,4.1-4.3,6.3-7.8,6.3c-3.3,0-6.5-2.1-7.7-5.2l3-1.2
			c0.7,1.9,2.8,3.3,4.7,3.3c2.1,0,4.3-1,4.3-3.2c0-2-1.4-3-3.9-3.9l-1.6-0.5c-3.4-1.1-5.8-2.9-5.8-6.2c0-3.5,3.4-5.8,7.1-5.8
			c3.7,0,6.3,2.2,7.4,4.7l-3.2,0.7c-0.5-1.4-2.1-2.4-4.2-2.4c-2,0-3.5,1.1-3.5,2.7c0,1.6,1,2.3,3.1,3.1L157.1,21.4z"/>
		<path class="st23" d="M175.3,21.4c4.6,1.6,6.7,3.8,6.7,7c0,4.1-4.3,6.3-7.8,6.3c-3.3,0-6.5-2.1-7.7-5.2l3-1.2
			c0.7,1.9,2.8,3.3,4.7,3.3c2.1,0,4.3-1,4.3-3.2c0-2-1.4-3-3.9-3.9l-1.6-0.5c-3.4-1.1-5.8-2.9-5.8-6.2c0-3.5,3.4-5.8,7.1-5.8
			c3.7,0,6.3,2.2,7.4,4.7l-3.2,0.7c-0.5-1.4-2.1-2.4-4.2-2.4c-2,0-3.5,1.1-3.5,2.7c0,1.6,1,2.3,3.1,3.1L175.3,21.4z"/>
	</g>
	
		<linearGradient id="SVGID_1_" gradientUnits="userSpaceOnUse" x1="-1331.3934" y1="-2696.3679" x2="-1300.0322" y2="-2727.729" gradientTransform="matrix(0.7071 0.7071 -0.7071 0.7071 -964.1827 2871.5574)">
		<stop  offset="0" style="stop-color:#4DB2E5"/>
		<stop  offset="1" style="stop-color:#457EC1"/>
	</linearGradient>
	<polygon class="st2" points="23.2,46 1,23.5 23.2,1 45.4,23.5 	"/>
	<line class="st25" x1="33.1" y1="22.4" x2="17.6" y2="6.6"/>
	<line class="st25" x1="34.3" y1="34.8" x2="18.9" y2="19.2"/>
	<line class="st25" x1="21.9" y1="33.7" x2="6.4" y2="18"/>
	<ellipse class="st25" cx="34.3" cy="23.6" rx="1.7" ry="1.7"/>
	<ellipse class="st25" cx="23.2" cy="34.8" rx="1.7" ry="1.7"/>
	<ellipse class="st25" cx="17.7" cy="18" rx="1.7" ry="1.7"/>
</g>
</svg>
